<svg width="16" height="16" viewBox="0 0 16 16" fill="none" xmlns="http://www.w3.org/2000/svg">
<g id="16/uc-cancel-icon" clip-path="url(#clip0_18_1306)">
<path id="Vector" fill-rule="evenodd" clip-rule="evenodd" d="M8.00244 16C12.4207 16 16.0024 12.4183 16.0024 8.00003C16.0024 3.58175 12.4207 3.05176e-05 8.00244 3.05176e-05C3.58416 3.05176e-05 0.00244141 3.58175 0.00244141 8.00003C0.00244141 12.4183 3.58416 16 8.00244 16ZM5.70955 4.29292C5.31902 3.9024 4.68586 3.9024 4.29533 4.29292C3.90481 4.68345 3.90481 5.31661 4.29533 5.70714L6.58823 8.00003L4.29533 10.2929C3.90481 10.6834 3.90481 11.3166 4.29533 11.7071C4.68586 12.0977 5.31902 12.0977 5.70955 11.7071L8.00244 9.41424L10.2953 11.7071C10.6859 12.0977 11.319 12.0977 11.7095 11.7071C12.1001 11.3166 12.1001 10.6834 11.7095 10.2929L9.41665 8.00003L11.7095 5.70714C12.1001 5.31661 12.1001 4.68345 11.7095 4.29292C11.319 3.9024 10.6859 3.9024 10.2953 4.29292L8.00244 6.58582L5.70955 4.29292Z" fill="#FF0000"/>
</g>
<defs>
<clipPath id="clip0_18_1306">
<rect width="16" height="16" fill="white"/>
</clipPath>
</defs>
</svg>
